<svg width="324" height="67" viewBox="0 0 324 67" fill="none" xmlns="http://www.w3.org/2000/svg">
<path d="M4.807 16.447H10.097V19H1.587V2.946H4.807V16.447ZM18.0316 19.207C16.805 19.207 15.701 18.9387 14.7196 18.402C13.7383 17.85 12.964 17.0757 12.3966 16.079C11.8446 15.0823 11.5686 13.9323 11.5686 12.629C11.5686 11.3257 11.8523 10.1757 12.4196 9.179C13.0023 8.18233 13.792 7.41567 14.7886 6.879C15.7853 6.327 16.897 6.051 18.1236 6.051C19.3503 6.051 20.462 6.327 21.4586 6.879C22.4553 7.41567 23.2373 8.18233 23.8046 9.179C24.3873 10.1757 24.6786 11.3257 24.6786 12.629C24.6786 13.9323 24.3796 15.0823 23.7816 16.079C23.199 17.0757 22.4016 17.85 21.3896 18.402C20.393 18.9387 19.2736 19.207 18.0316 19.207ZM18.0316 16.401C18.6143 16.401 19.1586 16.263 19.6646 15.987C20.186 15.6957 20.6 15.2663 20.9066 14.699C21.2133 14.1317 21.3666 13.4417 21.3666 12.629C21.3666 11.4177 21.0446 10.49 20.4006 9.846C19.772 9.18667 18.9976 8.857 18.0776 8.857C17.1576 8.857 16.3833 9.18667 15.7546 9.846C15.1413 10.49 14.8346 11.4177 14.8346 12.629C14.8346 13.8403 15.1336 14.7757 15.7316 15.435C16.345 16.079 17.1116 16.401 18.0316 16.401ZM30.4906 8.236C30.9046 7.56133 31.4413 7.03233 32.1006 6.649C32.7753 6.26567 33.542 6.074 34.4006 6.074V9.455H33.5496C32.5376 9.455 31.771 9.69267 31.2496 10.168C30.7436 10.6433 30.4906 11.4713 30.4906 12.652V19H27.2706V6.258H30.4906V8.236ZM48.6445 12.353C48.6445 12.813 48.6138 13.227 48.5525 13.595H39.2375C39.3141 14.515 39.6361 15.2357 40.2035 15.757C40.7708 16.2783 41.4685 16.539 42.2965 16.539C43.4925 16.539 44.3435 16.0253 44.8495 14.998H48.3225C47.9545 16.2247 47.2491 17.2367 46.2065 18.034C45.1638 18.816 43.8835 19.207 42.3655 19.207C41.1388 19.207 40.0348 18.9387 39.0535 18.402C38.0875 17.85 37.3285 17.0757 36.7765 16.079C36.2398 15.0823 35.9715 13.9323 35.9715 12.629C35.9715 11.3103 36.2398 10.1527 36.7765 9.156C37.3131 8.15933 38.0645 7.39267 39.0305 6.856C39.9965 6.31933 41.1081 6.051 42.3655 6.051C43.5768 6.051 44.6578 6.31167 45.6085 6.833C46.5745 7.35433 47.3181 8.098 47.8395 9.064C48.3761 10.0147 48.6445 11.111 48.6445 12.353ZM45.3095 11.433C45.2941 10.605 44.9951 9.94567 44.4125 9.455C43.8298 8.949 43.1168 8.696 42.2735 8.696C41.4761 8.696 40.8015 8.94133 40.2495 9.432C39.7128 9.90733 39.3831 10.5743 39.2605 11.433H45.3095ZM67.0488 6.074C68.6128 6.074 69.8701 6.557 70.8208 7.523C71.7868 8.47367 72.2698 9.80767 72.2698 11.525V19H69.0498V11.962C69.0498 10.9653 68.7968 10.2063 68.2908 9.685C67.7848 9.14833 67.0948 8.88 66.2208 8.88C65.3468 8.88 64.6491 9.14833 64.1278 9.685C63.6218 10.2063 63.3688 10.9653 63.3688 11.962V19H60.1488V11.962C60.1488 10.9653 59.8958 10.2063 59.3898 9.685C58.8838 9.14833 58.1938 8.88 57.3198 8.88C56.4304 8.88 55.7251 9.14833 55.2038 9.685C54.6978 10.2063 54.4448 10.9653 54.4448 11.962V19H51.2248V6.258H54.4448V7.799C54.8588 7.26233 55.3878 6.84067 56.0318 6.534C56.6911 6.22733 57.4118 6.074 58.1938 6.074C59.1904 6.074 60.0798 6.28867 60.8618 6.718C61.6438 7.132 62.2494 7.73 62.6788 8.512C63.0928 7.776 63.6908 7.18567 64.4728 6.741C65.2701 6.29633 66.1288 6.074 67.0488 6.074ZM84.4858 2.946V19H81.2658V2.946H84.4858ZM91.1172 8.098C91.5312 7.51533 92.0985 7.03233 92.8192 6.649C93.5552 6.25033 94.3909 6.051 95.3262 6.051C96.4149 6.051 97.3962 6.31933 98.2702 6.856C99.1595 7.39267 99.8572 8.15933 100.363 9.156C100.885 10.1373 101.145 11.2797 101.145 12.583C101.145 13.8863 100.885 15.044 100.363 16.056C99.8572 17.0527 99.1595 17.827 98.2702 18.379C97.3962 18.931 96.4149 19.207 95.3262 19.207C94.3909 19.207 93.5629 19.0153 92.8422 18.632C92.1369 18.2487 91.5619 17.7657 91.1172 17.183V25.072H87.8972V6.258H91.1172V8.098ZM97.8562 12.583C97.8562 11.8163 97.6952 11.157 97.3732 10.605C97.0665 10.0377 96.6525 9.60833 96.1312 9.317C95.6252 9.02567 95.0732 8.88 94.4752 8.88C93.8925 8.88 93.3405 9.03333 92.8192 9.34C92.3132 9.63133 91.8992 10.0607 91.5772 10.628C91.2705 11.1953 91.1172 11.8623 91.1172 12.629C91.1172 13.3957 91.2705 14.0627 91.5772 14.63C91.8992 15.1973 92.3132 15.6343 92.8192 15.941C93.3405 16.2323 93.8925 16.378 94.4752 16.378C95.0732 16.378 95.6252 16.2247 96.1312 15.918C96.6525 15.6113 97.0665 15.1743 97.3732 14.607C97.6952 14.0397 97.8562 13.365 97.8562 12.583ZM108.591 19.207C107.548 19.207 106.613 19.023 105.785 18.655C104.957 18.2717 104.298 17.758 103.807 17.114C103.332 16.47 103.071 15.757 103.025 14.975H106.268C106.329 15.4657 106.567 15.872 106.981 16.194C107.41 16.516 107.939 16.677 108.568 16.677C109.181 16.677 109.657 16.5543 109.994 16.309C110.347 16.0637 110.523 15.7493 110.523 15.366C110.523 14.952 110.308 14.6453 109.879 14.446C109.465 14.2313 108.798 14.0013 107.878 13.756C106.927 13.526 106.145 13.2883 105.532 13.043C104.934 12.7977 104.413 12.422 103.968 11.916C103.539 11.41 103.324 10.7277 103.324 9.869C103.324 9.16367 103.523 8.51967 103.922 7.937C104.336 7.35433 104.919 6.89433 105.67 6.557C106.437 6.21967 107.334 6.051 108.361 6.051C109.879 6.051 111.09 6.43433 111.995 7.201C112.9 7.95233 113.398 8.972 113.49 10.26H110.408C110.362 9.754 110.147 9.35533 109.764 9.064C109.396 8.75733 108.898 8.604 108.269 8.604C107.686 8.604 107.234 8.71133 106.912 8.926C106.605 9.14067 106.452 9.43967 106.452 9.823C106.452 10.2523 106.667 10.582 107.096 10.812C107.525 11.0267 108.192 11.249 109.097 11.479C110.017 11.709 110.776 11.9467 111.374 12.192C111.972 12.4373 112.486 12.8207 112.915 13.342C113.36 13.848 113.59 14.5227 113.605 15.366C113.605 16.102 113.398 16.7613 112.984 17.344C112.585 17.9267 112.003 18.3867 111.236 18.724C110.485 19.046 109.603 19.207 108.591 19.207ZM128.507 6.258V19H125.264V17.39C124.85 17.942 124.306 18.379 123.631 18.701C122.972 19.0077 122.251 19.161 121.469 19.161C120.473 19.161 119.591 18.954 118.824 18.54C118.058 18.1107 117.452 17.4897 117.007 16.677C116.578 15.849 116.363 14.8677 116.363 13.733V6.258H119.583V13.273C119.583 14.285 119.836 15.067 120.342 15.619C120.848 16.1557 121.538 16.424 122.412 16.424C123.302 16.424 123.999 16.1557 124.505 15.619C125.011 15.067 125.264 14.285 125.264 13.273V6.258H128.507ZM147.738 6.074C149.302 6.074 150.56 6.557 151.51 7.523C152.476 8.47367 152.959 9.80767 152.959 11.525V19H149.739V11.962C149.739 10.9653 149.486 10.2063 148.98 9.685C148.474 9.14833 147.784 8.88 146.91 8.88C146.036 8.88 145.339 9.14833 144.817 9.685C144.311 10.2063 144.058 10.9653 144.058 11.962V19H140.838V11.962C140.838 10.9653 140.585 10.2063 140.079 9.685C139.573 9.14833 138.883 8.88 138.009 8.88C137.12 8.88 136.415 9.14833 135.893 9.685C135.387 10.2063 135.134 10.9653 135.134 11.962V19H131.914V6.258H135.134V7.799C135.548 7.26233 136.077 6.84067 136.721 6.534C137.381 6.22733 138.101 6.074 138.883 6.074C139.88 6.074 140.769 6.28867 141.551 6.718C142.333 7.132 142.939 7.73 143.368 8.512C143.782 7.776 144.38 7.18567 145.162 6.741C145.96 6.29633 146.818 6.074 147.738 6.074ZM163.588 4.74C163.021 4.74 162.546 4.56367 162.162 4.211C161.794 3.843 161.61 3.39067 161.61 2.854C161.61 2.31733 161.794 1.87267 162.162 1.52C162.546 1.152 163.021 0.967999 163.588 0.967999C164.156 0.967999 164.623 1.152 164.991 1.52C165.375 1.87267 165.566 2.31733 165.566 2.854C165.566 3.39067 165.375 3.843 164.991 4.211C164.623 4.56367 164.156 4.74 163.588 4.74ZM165.175 6.258V19H161.955V6.258H165.175ZM173.463 19.207C172.42 19.207 171.485 19.023 170.657 18.655C169.829 18.2717 169.169 17.758 168.679 17.114C168.203 16.47 167.943 15.757 167.897 14.975H171.14C171.201 15.4657 171.439 15.872 171.853 16.194C172.282 16.516 172.811 16.677 173.44 16.677C174.053 16.677 174.528 16.5543 174.866 16.309C175.218 16.0637 175.395 15.7493 175.395 15.366C175.395 14.952 175.18 14.6453 174.751 14.446C174.337 14.2313 173.67 14.0013 172.75 13.756C171.799 13.526 171.017 13.2883 170.404 13.043C169.806 12.7977 169.284 12.422 168.84 11.916C168.41 11.41 168.196 10.7277 168.196 9.869C168.196 9.16367 168.395 8.51967 168.794 7.937C169.208 7.35433 169.79 6.89433 170.542 6.557C171.308 6.21967 172.205 6.051 173.233 6.051C174.751 6.051 175.962 6.43433 176.867 7.201C177.771 7.95233 178.27 8.972 178.362 10.26H175.28C175.234 9.754 175.019 9.35533 174.636 9.064C174.268 8.75733 173.769 8.604 173.141 8.604C172.558 8.604 172.106 8.71133 171.784 8.926C171.477 9.14067 171.324 9.43967 171.324 9.823C171.324 10.2523 171.538 10.582 171.968 10.812C172.397 11.0267 173.064 11.249 173.969 11.479C174.889 11.709 175.648 11.9467 176.246 12.192C176.844 12.4373 177.357 12.8207 177.787 13.342C178.231 13.848 178.461 14.5227 178.477 15.366C178.477 16.102 178.27 16.7613 177.856 17.344C177.457 17.9267 176.874 18.3867 176.108 18.724C175.356 19.046 174.475 19.207 173.463 19.207ZM191.936 19.207C190.894 19.207 189.958 19.023 189.13 18.655C188.302 18.2717 187.643 17.758 187.152 17.114C186.677 16.47 186.416 15.757 186.37 14.975H189.613C189.675 15.4657 189.912 15.872 190.326 16.194C190.756 16.516 191.285 16.677 191.913 16.677C192.527 16.677 193.002 16.5543 193.339 16.309C193.692 16.0637 193.868 15.7493 193.868 15.366C193.868 14.952 193.654 14.6453 193.224 14.446C192.81 14.2313 192.143 14.0013 191.223 13.756C190.273 13.526 189.491 13.2883 188.877 13.043C188.279 12.7977 187.758 12.422 187.313 11.916C186.884 11.41 186.669 10.7277 186.669 9.869C186.669 9.16367 186.869 8.51967 187.267 7.937C187.681 7.35433 188.264 6.89433 189.015 6.557C189.782 6.21967 190.679 6.051 191.706 6.051C193.224 6.051 194.436 6.43433 195.34 7.201C196.245 7.95233 196.743 8.972 196.835 10.26H193.753C193.707 9.754 193.493 9.35533 193.109 9.064C192.741 8.75733 192.243 8.604 191.614 8.604C191.032 8.604 190.579 8.71133 190.257 8.926C189.951 9.14067 189.797 9.43967 189.797 9.823C189.797 10.2523 190.012 10.582 190.441 10.812C190.871 11.0267 191.538 11.249 192.442 11.479C193.362 11.709 194.121 11.9467 194.719 12.192C195.317 12.4373 195.831 12.8207 196.26 13.342C196.705 13.848 196.935 14.5227 196.95 15.366C196.95 16.102 196.743 16.7613 196.329 17.344C195.931 17.9267 195.348 18.3867 194.581 18.724C193.83 19.046 192.948 19.207 191.936 19.207ZM201.457 4.74C200.889 4.74 200.414 4.56367 200.031 4.211C199.663 3.843 199.479 3.39067 199.479 2.854C199.479 2.31733 199.663 1.87267 200.031 1.52C200.414 1.152 200.889 0.967999 201.457 0.967999C202.024 0.967999 202.492 1.152 202.86 1.52C203.243 1.87267 203.435 2.31733 203.435 2.854C203.435 3.39067 203.243 3.843 202.86 4.211C202.492 4.56367 202.024 4.74 201.457 4.74ZM203.044 6.258V19H199.824V6.258H203.044ZM222.279 6.074C223.843 6.074 225.1 6.557 226.051 7.523C227.017 8.47367 227.5 9.80767 227.5 11.525V19H224.28V11.962C224.28 10.9653 224.027 10.2063 223.521 9.685C223.015 9.14833 222.325 8.88 221.451 8.88C220.577 8.88 219.879 9.14833 219.358 9.685C218.852 10.2063 218.599 10.9653 218.599 11.962V19H215.379V11.962C215.379 10.9653 215.126 10.2063 214.62 9.685C214.114 9.14833 213.424 8.88 212.55 8.88C211.661 8.88 210.955 9.14833 210.434 9.685C209.928 10.2063 209.675 10.9653 209.675 11.962V19H206.455V6.258H209.675V7.799C210.089 7.26233 210.618 6.84067 211.262 6.534C211.921 6.22733 212.642 6.074 213.424 6.074C214.421 6.074 215.31 6.28867 216.092 6.718C216.874 7.132 217.48 7.73 217.909 8.512C218.323 7.776 218.921 7.18567 219.703 6.741C220.5 6.29633 221.359 6.074 222.279 6.074ZM234.006 8.098C234.42 7.51533 234.987 7.03233 235.708 6.649C236.444 6.25033 237.279 6.051 238.215 6.051C239.303 6.051 240.285 6.31933 241.159 6.856C242.048 7.39267 242.746 8.15933 243.252 9.156C243.773 10.1373 244.034 11.2797 244.034 12.583C244.034 13.8863 243.773 15.044 243.252 16.056C242.746 17.0527 242.048 17.827 241.159 18.379C240.285 18.931 239.303 19.207 238.215 19.207C237.279 19.207 236.451 19.0153 235.731 18.632C235.025 18.2487 234.45 17.7657 234.006 17.183V25.072H230.786V6.258H234.006V8.098ZM240.745 12.583C240.745 11.8163 240.584 11.157 240.262 10.605C239.955 10.0377 239.541 9.60833 239.02 9.317C238.514 9.02567 237.962 8.88 237.364 8.88C236.781 8.88 236.229 9.03333 235.708 9.34C235.202 9.63133 234.788 10.0607 234.466 10.628C234.159 11.1953 234.006 11.8623 234.006 12.629C234.006 13.3957 234.159 14.0627 234.466 14.63C234.788 15.1973 235.202 15.6343 235.708 15.941C236.229 16.2323 236.781 16.378 237.364 16.378C237.962 16.378 238.514 16.2247 239.02 15.918C239.541 15.6113 239.955 15.1743 240.262 14.607C240.584 14.0397 240.745 13.365 240.745 12.583ZM249.823 1.98V19H246.603V1.98H249.823ZM265.425 6.258L257.536 25.026H254.109L256.869 18.678L251.763 6.258H255.374L258.663 15.159L261.998 6.258H265.425ZM0.759 53.583C0.759 52.295 1.012 51.1527 1.518 50.156C2.03933 49.1593 2.74467 48.3927 3.634 47.856C4.52333 47.3193 5.51233 47.051 6.601 47.051C7.429 47.051 8.21867 47.235 8.97 47.603C9.72133 47.9557 10.3193 48.431 10.764 49.029V42.98H14.03V60H10.764V58.114C10.3653 58.7427 9.80567 59.2487 9.085 59.632C8.36433 60.0153 7.52867 60.207 6.578 60.207C5.50467 60.207 4.52333 59.931 3.634 59.379C2.74467 58.827 2.03933 58.0527 1.518 57.056C1.012 56.044 0.759 54.8863 0.759 53.583ZM10.787 53.629C10.787 52.847 10.6337 52.18 10.327 51.628C10.0203 51.0607 9.60633 50.6313 9.085 50.34C8.56367 50.0333 8.004 49.88 7.406 49.88C6.808 49.88 6.256 50.0257 5.75 50.317C5.244 50.6083 4.83 51.0377 4.508 51.605C4.20133 52.157 4.048 52.8163 4.048 53.583C4.048 54.3497 4.20133 55.0243 4.508 55.607C4.83 56.1743 5.244 56.6113 5.75 56.918C6.27133 57.2247 6.82333 57.378 7.406 57.378C8.004 57.378 8.56367 57.2323 9.085 56.941C9.60633 56.6343 10.0203 56.205 10.327 55.653C10.6337 55.0857 10.787 54.411 10.787 53.629ZM29.4339 47.258V60H26.1909V58.39C25.7769 58.942 25.2326 59.379 24.5579 59.701C23.8986 60.0077 23.1779 60.161 22.3959 60.161C21.3992 60.161 20.5176 59.954 19.7509 59.54C18.9842 59.1107 18.3786 58.4897 17.9339 57.677C17.5046 56.849 17.2899 55.8677 17.2899 54.733V47.258H20.5099V54.273C20.5099 55.285 20.7629 56.067 21.2689 56.619C21.7749 57.1557 22.4649 57.424 23.3389 57.424C24.2282 57.424 24.9259 57.1557 25.4319 56.619C25.9379 56.067 26.1909 55.285 26.1909 54.273V47.258H29.4339ZM48.6649 47.074C50.2289 47.074 51.4863 47.557 52.4369 48.523C53.4029 49.4737 53.8859 50.8077 53.8859 52.525V60H50.6659V52.962C50.6659 51.9653 50.4129 51.2063 49.9069 50.685C49.4009 50.1483 48.7109 49.88 47.8369 49.88C46.9629 49.88 46.2653 50.1483 45.7439 50.685C45.2379 51.2063 44.9849 51.9653 44.9849 52.962V60H41.7649V52.962C41.7649 51.9653 41.5119 51.2063 41.0059 50.685C40.4999 50.1483 39.8099 49.88 38.9359 49.88C38.0466 49.88 37.3413 50.1483 36.8199 50.685C36.3139 51.2063 36.0609 51.9653 36.0609 52.962V60H32.8409V47.258H36.0609V48.799C36.4749 48.2623 37.0039 47.8407 37.6479 47.534C38.3073 47.2273 39.0279 47.074 39.8099 47.074C40.8066 47.074 41.6959 47.2887 42.4779 47.718C43.2599 48.132 43.8656 48.73 44.2949 49.512C44.7089 48.776 45.3069 48.1857 46.0889 47.741C46.8863 47.2963 47.7449 47.074 48.6649 47.074ZM72.9955 47.074C74.5595 47.074 75.8169 47.557 76.7675 48.523C77.7335 49.4737 78.2165 50.8077 78.2165 52.525V60H74.9965V52.962C74.9965 51.9653 74.7435 51.2063 74.2375 50.685C73.7315 50.1483 73.0415 49.88 72.1675 49.88C71.2935 49.88 70.5959 50.1483 70.0745 50.685C69.5685 51.2063 69.3155 51.9653 69.3155 52.962V60H66.0955V52.962C66.0955 51.9653 65.8425 51.2063 65.3365 50.685C64.8305 50.1483 64.1405 49.88 63.2665 49.88C62.3772 49.88 61.6719 50.1483 61.1505 50.685C60.6445 51.2063 60.3915 51.9653 60.3915 52.962V60H57.1715V47.258H60.3915V48.799C60.8055 48.2623 61.3345 47.8407 61.9785 47.534C62.6379 47.2273 63.3585 47.074 64.1405 47.074C65.1372 47.074 66.0265 47.2887 66.8085 47.718C67.5905 48.132 68.1962 48.73 68.6255 49.512C69.0395 48.776 69.6375 48.1857 70.4195 47.741C71.2169 47.2963 72.0755 47.074 72.9955 47.074ZM93.6921 47.258L85.8031 66.026H82.3761L85.1361 59.678L80.0301 47.258H83.6411L86.9301 56.159L90.2651 47.258H93.6921ZM105.117 49.903V56.067C105.117 56.4963 105.217 56.8107 105.416 57.01C105.631 57.194 105.984 57.286 106.474 57.286H107.969V60H105.945C103.231 60 101.874 58.6813 101.874 56.044V49.903H100.356V47.258H101.874V44.107H105.117V47.258H107.969V49.903H105.117ZM122.36 53.353C122.36 53.813 122.33 54.227 122.268 54.595H112.953C113.03 55.515 113.352 56.2357 113.919 56.757C114.487 57.2783 115.184 57.539 116.012 57.539C117.208 57.539 118.059 57.0253 118.565 55.998H122.038C121.67 57.2247 120.965 58.2367 119.922 59.034C118.88 59.816 117.599 60.207 116.081 60.207C114.855 60.207 113.751 59.9387 112.769 59.402C111.803 58.85 111.044 58.0757 110.492 57.079C109.956 56.0823 109.687 54.9323 109.687 53.629C109.687 52.3103 109.956 51.1527 110.492 50.156C111.029 49.1593 111.78 48.3927 112.746 47.856C113.712 47.3193 114.824 47.051 116.081 47.051C117.293 47.051 118.374 47.3117 119.324 47.833C120.29 48.3543 121.034 49.098 121.555 50.064C122.092 51.0147 122.36 52.111 122.36 53.353ZM119.025 52.433C119.01 51.605 118.711 50.9457 118.128 50.455C117.546 49.949 116.833 49.696 115.989 49.696C115.192 49.696 114.517 49.9413 113.965 50.432C113.429 50.9073 113.099 51.5743 112.976 52.433H119.025ZM131.979 60L129.357 56.044L127.034 60H123.584L127.747 53.606L123.538 47.258H127.172L129.771 51.191L132.117 47.258H135.567L131.381 53.606L135.613 60H131.979ZM141.341 49.903V56.067C141.341 56.4963 141.44 56.8107 141.64 57.01C141.854 57.194 142.207 57.286 142.698 57.286H144.193V60H142.169C139.455 60 138.098 58.6813 138.098 56.044V49.903H136.58V47.258H138.098V44.107H141.341V47.258H144.193V49.903H141.341ZM158.107 60.207C156.88 60.207 155.776 59.9387 154.795 59.402C153.814 58.85 153.039 58.0757 152.472 57.079C151.92 56.0823 151.644 54.9323 151.644 53.629C151.644 52.3257 151.928 51.1757 152.495 50.179C153.078 49.1823 153.867 48.4157 154.864 47.879C155.861 47.327 156.972 47.051 158.199 47.051C159.426 47.051 160.537 47.327 161.534 47.879C162.531 48.4157 163.313 49.1823 163.88 50.179C164.463 51.1757 164.754 52.3257 164.754 53.629C164.754 54.9323 164.455 56.0823 163.857 57.079C163.274 58.0757 162.477 58.85 161.465 59.402C160.468 59.9387 159.349 60.207 158.107 60.207ZM158.107 57.401C158.69 57.401 159.234 57.263 159.74 56.987C160.261 56.6957 160.675 56.2663 160.982 55.699C161.289 55.1317 161.442 54.4417 161.442 53.629C161.442 52.4177 161.12 51.49 160.476 50.846C159.847 50.1867 159.073 49.857 158.153 49.857C157.233 49.857 156.459 50.1867 155.83 50.846C155.217 51.49 154.91 52.4177 154.91 53.629C154.91 54.8403 155.209 55.7757 155.807 56.435C156.42 57.079 157.187 57.401 158.107 57.401ZM173.188 49.903H170.957V60H167.691V49.903H166.242V47.258H167.691V46.614C167.691 45.05 168.136 43.9 169.025 43.164C169.914 42.428 171.256 42.083 173.05 42.129V44.843C172.268 44.8277 171.724 44.958 171.417 45.234C171.11 45.51 170.957 46.0083 170.957 46.729V47.258H173.188V49.903ZM184.964 49.903V56.067C184.964 56.4963 185.064 56.8107 185.263 57.01C185.478 57.194 185.831 57.286 186.321 57.286H187.816V60H185.792C183.078 60 181.721 58.6813 181.721 56.044V49.903H180.203V47.258H181.721V44.107H184.964V47.258H187.816V49.903H184.964ZM197.538 47.074C198.504 47.074 199.363 47.2887 200.114 47.718C200.866 48.132 201.448 48.753 201.862 49.581C202.292 50.3937 202.506 51.375 202.506 52.525V60H199.286V52.962C199.286 51.95 199.033 51.1757 198.527 50.639C198.021 50.087 197.331 49.811 196.457 49.811C195.568 49.811 194.863 50.087 194.341 50.639C193.835 51.1757 193.582 51.95 193.582 52.962V60H190.362V42.98H193.582V48.845C193.996 48.293 194.548 47.8637 195.238 47.557C195.928 47.235 196.695 47.074 197.538 47.074ZM217.643 53.353C217.643 53.813 217.613 54.227 217.551 54.595H208.236C208.313 55.515 208.635 56.2357 209.202 56.757C209.77 57.2783 210.467 57.539 211.295 57.539C212.491 57.539 213.342 57.0253 213.848 55.998H217.321C216.953 57.2247 216.248 58.2367 215.205 59.034C214.163 59.816 212.882 60.207 211.364 60.207C210.138 60.207 209.034 59.9387 208.052 59.402C207.086 58.85 206.327 58.0757 205.775 57.079C205.239 56.0823 204.97 54.9323 204.97 53.629C204.97 52.3103 205.239 51.1527 205.775 50.156C206.312 49.1593 207.063 48.3927 208.029 47.856C208.995 47.3193 210.107 47.051 211.364 47.051C212.576 47.051 213.657 47.3117 214.607 47.833C215.573 48.3543 216.317 49.098 216.838 50.064C217.375 51.0147 217.643 52.111 217.643 53.353ZM214.308 52.433C214.293 51.605 213.994 50.9457 213.411 50.455C212.829 49.949 212.116 49.696 211.272 49.696C210.475 49.696 209.8 49.9413 209.248 50.432C208.712 50.9073 208.382 51.5743 208.259 52.433H214.308ZM229.154 49.098C229.568 48.5153 230.135 48.0323 230.856 47.649C231.592 47.2503 232.428 47.051 233.363 47.051C234.452 47.051 235.433 47.3193 236.307 47.856C237.196 48.3927 237.894 49.1593 238.4 50.156C238.921 51.1373 239.182 52.2797 239.182 53.583C239.182 54.8863 238.921 56.044 238.4 57.056C237.894 58.0527 237.196 58.827 236.307 59.379C235.433 59.931 234.452 60.207 233.363 60.207C232.428 60.207 231.6 60.0153 230.879 59.632C230.174 59.2487 229.599 58.7657 229.154 58.183V66.072H225.934V47.258H229.154V49.098ZM235.893 53.583C235.893 52.8163 235.732 52.157 235.41 51.605C235.103 51.0377 234.689 50.6083 234.168 50.317C233.662 50.0257 233.11 49.88 232.512 49.88C231.929 49.88 231.377 50.0333 230.856 50.34C230.35 50.6313 229.936 51.0607 229.614 51.628C229.307 52.1953 229.154 52.8623 229.154 53.629C229.154 54.3957 229.307 55.0627 229.614 55.63C229.936 56.1973 230.35 56.6343 230.856 56.941C231.377 57.2323 231.929 57.378 232.512 57.378C233.11 57.378 233.662 57.2247 234.168 56.918C234.689 56.6113 235.103 56.1743 235.41 55.607C235.732 55.0397 235.893 54.365 235.893 53.583ZM244.972 49.236C245.386 48.5613 245.923 48.0323 246.582 47.649C247.257 47.2657 248.023 47.074 248.882 47.074V50.455H248.031C247.019 50.455 246.252 50.6927 245.731 51.168C245.225 51.6433 244.972 52.4713 244.972 53.652V60H241.752V47.258H244.972V49.236ZM252.914 45.74C252.346 45.74 251.871 45.5637 251.488 45.211C251.12 44.843 250.936 44.3907 250.936 43.854C250.936 43.3173 251.12 42.8727 251.488 42.52C251.871 42.152 252.346 41.968 252.914 41.968C253.481 41.968 253.949 42.152 254.317 42.52C254.7 42.8727 254.892 43.3173 254.892 43.854C254.892 44.3907 254.7 44.843 254.317 45.211C253.949 45.5637 253.481 45.74 252.914 45.74ZM254.501 47.258V60H251.281V47.258H254.501ZM264.973 47.074C266.491 47.074 267.718 47.557 268.653 48.523C269.588 49.4737 270.056 50.8077 270.056 52.525V60H266.836V52.962C266.836 51.95 266.583 51.1757 266.077 50.639C265.571 50.087 264.881 49.811 264.007 49.811C263.118 49.811 262.412 50.087 261.891 50.639C261.385 51.1757 261.132 51.95 261.132 52.962V60H257.912V47.258H261.132V48.845C261.561 48.293 262.106 47.8637 262.765 47.557C263.44 47.235 264.176 47.074 264.973 47.074ZM277.097 49.903V56.067C277.097 56.4963 277.197 56.8107 277.396 57.01C277.611 57.194 277.964 57.286 278.454 57.286H279.949V60H277.925C275.211 60 273.854 58.6813 273.854 56.044V49.903H272.336V47.258H273.854V44.107H277.097V47.258H279.949V49.903H277.097ZM284.128 45.74C283.561 45.74 283.086 45.5637 282.702 45.211C282.334 44.843 282.15 44.3907 282.15 43.854C282.15 43.3173 282.334 42.8727 282.702 42.52C283.086 42.152 283.561 41.968 284.128 41.968C284.696 41.968 285.163 42.152 285.531 42.52C285.915 42.8727 286.106 43.3173 286.106 43.854C286.106 44.3907 285.915 44.843 285.531 45.211C285.163 45.5637 284.696 45.74 284.128 45.74ZM285.715 47.258V60H282.495V47.258H285.715ZM296.188 47.074C297.706 47.074 298.932 47.557 299.868 48.523C300.803 49.4737 301.271 50.8077 301.271 52.525V60H298.051V52.962C298.051 51.95 297.798 51.1757 297.292 50.639C296.786 50.087 296.096 49.811 295.222 49.811C294.332 49.811 293.627 50.087 293.106 50.639C292.6 51.1757 292.347 51.95 292.347 52.962V60H289.127V47.258H292.347V48.845C292.776 48.293 293.32 47.8637 293.98 47.557C294.654 47.235 295.39 47.074 296.188 47.074ZM309.554 47.051C310.504 47.051 311.34 47.2427 312.061 47.626C312.781 47.994 313.349 48.477 313.763 49.075V47.258H317.006V60.092C317.006 61.2727 316.768 62.323 316.293 63.243C315.817 64.1783 315.104 64.9143 314.154 65.451C313.203 66.003 312.053 66.279 310.704 66.279C308.894 66.279 307.407 65.8573 306.242 65.014C305.092 64.1707 304.44 63.0207 304.287 61.564H307.484C307.652 62.1467 308.013 62.6067 308.565 62.944C309.132 63.2967 309.814 63.473 310.612 63.473C311.547 63.473 312.306 63.1893 312.889 62.622C313.471 62.07 313.763 61.2267 313.763 60.092V58.114C313.349 58.712 312.774 59.2103 312.038 59.609C311.317 60.0077 310.489 60.207 309.554 60.207C308.48 60.207 307.499 59.931 306.61 59.379C305.72 58.827 305.015 58.0527 304.494 57.056C303.988 56.044 303.735 54.8863 303.735 53.583C303.735 52.295 303.988 51.1527 304.494 50.156C305.015 49.1593 305.713 48.3927 306.587 47.856C307.476 47.3193 308.465 47.051 309.554 47.051ZM313.763 53.629C313.763 52.847 313.609 52.18 313.303 51.628C312.996 51.0607 312.582 50.6313 312.061 50.34C311.539 50.0333 310.98 49.88 310.382 49.88C309.784 49.88 309.232 50.0257 308.726 50.317C308.22 50.6083 307.806 51.0377 307.484 51.605C307.177 52.157 307.024 52.8163 307.024 53.583C307.024 54.3497 307.177 55.0243 307.484 55.607C307.806 56.1743 308.22 56.6113 308.726 56.918C309.247 57.2247 309.799 57.378 310.382 57.378C310.98 57.378 311.539 57.2323 312.061 56.941C312.582 56.6343 312.996 56.205 313.303 55.653C313.609 55.0857 313.763 54.411 313.763 53.629ZM321.806 60.161C321.224 60.161 320.741 59.9847 320.357 59.632C319.989 59.264 319.805 58.8117 319.805 58.275C319.805 57.7383 319.989 57.2937 320.357 56.941C320.741 56.573 321.224 56.389 321.806 56.389C322.374 56.389 322.841 56.573 323.209 56.941C323.577 57.2937 323.761 57.7383 323.761 58.275C323.761 58.8117 323.577 59.264 323.209 59.632C322.841 59.9847 322.374 60.161 321.806 60.161Z" fill="black"/>
</svg>
